<svg width="101" height="50" viewBox="0 0 101 50" fill="none" xmlns="http://www.w3.org/2000/svg">
<path d="M84.2307 23.751C87.2668 19.2628 88.1299 15.3838 86.7388 13.9927C86.3022 13.5662 85.6421 13.3428 84.779 13.3428C82.8801 13.3428 80.0775 14.409 76.9805 16.5008C78.2701 17.4959 79.5597 18.623 80.829 19.8923C82.0983 21.1616 83.2355 22.4512 84.2205 23.7408L84.2307 23.751Z" fill="white"/>
<path d="M70.646 19.9021C71.9152 18.6328 73.2049 17.4955 74.4945 16.5105C71.3974 14.4187 68.5948 13.3525 66.6959 13.3525C65.8429 13.3525 65.1728 13.5658 64.7361 14.0024C63.345 15.3936 64.2081 19.2624 67.2442 23.7607C68.2394 22.4711 69.3767 21.1815 70.6358 19.9122L70.646 19.9021Z" fill="white"/>
<path d="M83.3354 24.9998C82.3403 23.6695 81.1624 22.2987 79.8017 20.938C78.441 19.5773 77.0702 18.3994 75.74 17.4043C74.4098 18.3994 73.0389 19.5773 71.6782 20.938C70.3176 22.2987 69.1397 23.6695 68.1445 24.9998C69.1397 26.33 70.3176 27.7008 71.6782 29.0615C73.0389 30.4222 74.4098 31.6001 75.74 32.5952C77.0702 31.6001 78.441 30.4222 79.8017 29.0615C81.1624 27.7008 82.3403 26.33 83.3354 24.9998Z" fill="white"/>
<path d="M67.256 26.249C64.2198 30.7372 63.3567 34.6162 64.7478 36.0073C66.139 37.3985 70.0078 36.5354 74.5062 33.4891C73.2166 32.4939 71.927 31.3567 70.6577 30.0975C69.3884 28.8282 68.2511 27.5386 67.2661 26.249H67.256Z" fill="white"/>
<path d="M53.0269 0H13.2422C6.33723 0 0.742188 5.59505 0.742188 12.5V37.5C0.742188 44.405 6.33723 50 13.2422 50H88.2422C95.1471 50 100.742 44.405 100.742 37.5V0H53.0269ZM50.7422 48.5378H13.2422C7.15974 48.5378 2.20441 43.5825 2.20441 37.5V12.5C2.20441 6.41755 7.15974 1.46223 13.2422 1.46223H50.7422V48.5378ZM87.7751 37.0329C87.0541 37.7539 86.0184 38.0991 84.7897 38.0991C82.3628 38.0991 79.1236 36.7689 75.7422 34.3928C72.3608 36.7689 69.1216 38.0991 66.6947 38.0991C65.4558 38.0991 64.4302 37.7539 63.7093 37.0329C61.5667 34.8903 62.7548 30.1076 66.3393 25C62.7548 19.8924 61.5667 15.1097 63.7093 12.9671C65.8519 10.8245 70.6346 12.0126 75.7422 15.5971C80.8498 12.0126 85.6325 10.8245 87.7751 12.9671C89.9177 15.1097 88.7296 19.8924 85.1451 25C88.7296 30.1076 89.9177 34.8903 87.7751 37.0329Z" fill="white"/>
<path d="M80.8407 30.0975C79.5714 31.3668 78.2818 32.5041 76.9922 33.4891C81.4804 36.5252 85.3594 37.3883 86.7505 36.0073C88.1417 34.6162 87.2785 30.7474 84.2424 26.249C83.2473 27.5386 82.11 28.8282 80.8508 30.0975H80.8407Z" fill="white"/>
<path d="M11.2926 15.2113C9.95222 16.8867 9.35312 19.1715 9.76945 21.0297C10.8458 25.8429 15.3137 26.6146 18.5936 27.0411C21.1829 27.3762 23.6606 27.8534 23.5997 30.1585C23.5286 32.5549 20.8275 33.1438 19.0505 33.1438C14.4303 33.1438 14.278 29.732 14.278 29.732H9.3125C9.38358 31.0114 9.76945 33.0728 11.3535 34.8396C13.0798 36.7791 15.6793 37.7539 19.0607 37.7539C21.6602 37.7539 24.0261 36.9111 25.7118 35.4083V37.4696H30.3421V31.5699L31.977 29.7726L36.6582 37.4696H42.0501L35.2365 26.2084L42.0501 18.745H36.0489L30.3421 25.0001V12.5001H25.7118V15.526C25.5595 15.3331 25.397 15.1402 25.2244 14.9472C23.5387 13.1601 21.1119 12.2563 18.0046 12.2563C14.4201 12.2563 12.3791 13.8607 11.2926 15.2113ZM18.0859 16.5923C20.1675 16.5923 22.2491 17.0594 23.0412 19.9533H25.7016V24.3806C22.3811 21.6491 15.1716 23.3652 14.3998 19.9635C13.9937 18.1763 15.7707 16.5923 18.0859 16.5923Z" fill="white"/>
</svg>
